<?xml version="1.0" encoding="iso-8859-1"?>
<!-- Generator: Adobe Illustrator 19.0.0, SVG Export Plug-In . SVG Version: 6.00 Build 0)  -->
<svg version="1.1" id="Layer_1" xmlns="http://www.w3.org/2000/svg" xmlns:xlink="http://www.w3.org/1999/xlink" x="0px" y="0px"
	 viewBox="0 0 512 512" style="enable-background:new 0 0 512 512;" xml:space="preserve">
<g>
	<g>
		<path d="M427.413,50.087h-53.435c-15.981,0-28.935,12.954-28.935,28.935v53.435c0,15.979,12.954,28.935,28.935,28.935h53.435
			c15.981,0,28.935-12.955,28.935-28.935V79.022C456.348,63.041,443.394,50.087,427.413,50.087z M434.087,132.224
			c0,3.679-2.06,6.906-5.745,6.906h-53.435c-3.685,0-7.603-3.227-7.603-6.906V78.789c0-3.679,3.918-6.441,7.603-6.441h53.435
			c3.685,0,5.745,2.762,5.745,6.441V132.224z"/>
	</g>
</g>
<g>
	<g>
		<path d="M403.462,5.565H109.907C49.821,5.565,0,54.365,0,114.637v282.261c0,60.272,49.821,109.537,109.907,109.537h293.554
			C463.549,506.435,512,457.17,512,396.898V114.637C512,54.365,463.549,5.565,403.462,5.565z M489.739,396.898
			c0,47.994-38.462,87.276-86.277,87.276H109.907c-47.815,0-87.647-39.281-87.647-87.276V217.043H161.09
			c-29.87,25.044-48.856,63.336-48.856,105.622c0,76.717,62.413,139.072,139.13,139.072s139.13-62.325,139.13-139.042
			c0-42.288-18.989-80.609-48.859-105.652h148.103V396.898z M251.364,205.681c64.445,0,116.87,52.429,116.87,116.87
			s-52.424,116.87-116.87,116.87c-64.446,0-116.87-52.429-116.87-116.87S186.918,205.681,251.364,205.681z M489.739,194.783H305.864
			c-16.747-8.348-35.168-11.13-54.5-11.13c-19.334,0-37.756,2.783-54.503,11.13H22.261v-80.145
			c0-47.995,39.832-86.811,87.647-86.811h293.554c47.815,0,86.277,38.817,86.277,86.811V194.783z"/>
	</g>
</g>
<g>
	<g>
		<path d="M251.364,239.072c-46.033,0-83.478,37.446-83.478,83.478c0,46.033,37.446,83.478,83.478,83.478
			c46.033,0,83.478-37.446,83.478-83.478C334.842,276.518,297.397,239.072,251.364,239.072z M251.364,383.768
			c-33.75,0-61.217-27.462-61.217-61.217s27.467-61.217,61.217-61.217c33.75,0,61.217,27.462,61.217,61.217
			C312.582,356.306,285.114,383.768,251.364,383.768z"/>
	</g>
</g>
<g>
</g>
<g>
</g>
<g>
</g>
<g>
</g>
<g>
</g>
<g>
</g>
<g>
</g>
<g>
</g>
<g>
</g>
<g>
</g>
<g>
</g>
<g>
</g>
<g>
</g>
<g>
</g>
<g>
</g>
</svg>
